<mxfile host="app.diagrams.net" modified="2023-08-29T13:05:14.365Z" agent="Mozilla/5.0 (Macintosh; Intel Mac OS X 10_15_7) AppleWebKit/537.36 (KHTML, like Gecko) Chrome/116.0.0.0 Safari/537.36" etag="MXSvmyB5U_Rkxm02jIvP" version="21.6.9" type="device">
  <diagram name="Page-1" id="9f46799a-70d6-7492-0946-bef42562c5a5">
    <mxGraphModel dx="1468" dy="937" grid="1" gridSize="10" guides="1" tooltips="1" connect="1" arrows="1" fold="1" page="1" pageScale="1" pageWidth="1100" pageHeight="850" background="none" math="0" shadow="0">
      <root>
        <mxCell id="0" />
        <mxCell id="1" parent="0" />
        <mxCell id="xcQrcyNLMx3Nr2cv-rWF-1" value="" style="rounded=0;whiteSpace=wrap;html=1;" vertex="1" parent="1">
          <mxGeometry x="870" y="130" width="280" height="402.5" as="geometry" />
        </mxCell>
        <mxCell id="xcQrcyNLMx3Nr2cv-rWF-4" value="IOT Devices" style="rounded=0;whiteSpace=wrap;html=1;" vertex="1" parent="1">
          <mxGeometry x="210" y="300" width="120" height="60" as="geometry" />
        </mxCell>
        <mxCell id="xcQrcyNLMx3Nr2cv-rWF-9" value="" style="rounded=0;whiteSpace=wrap;html=1;" vertex="1" parent="1">
          <mxGeometry x="960" y="180" width="140" height="120" as="geometry" />
        </mxCell>
        <mxCell id="xcQrcyNLMx3Nr2cv-rWF-11" value="" style="sketch=0;outlineConnect=0;fontColor=#232F3E;gradientColor=none;fillColor=#232F3D;strokeColor=none;dashed=0;verticalLabelPosition=bottom;verticalAlign=top;align=center;html=1;fontSize=12;fontStyle=0;aspect=fixed;pointerEvents=1;shape=mxgraph.aws4.traditional_server;" vertex="1" parent="1">
          <mxGeometry x="976.83" y="218" width="33.17" height="57.5" as="geometry" />
        </mxCell>
        <mxCell id="xcQrcyNLMx3Nr2cv-rWF-12" value="" style="shape=image;verticalLabelPosition=bottom;labelBackgroundColor=default;verticalAlign=top;aspect=fixed;imageAspect=0;image=data:image/png,iVBORw0KGgoAAAANSUhEUgAAAHsAAAB7CAMAAABjGQ9NAAAAYFBMVEX///8AAACOjo7R0dGlpaW+vr5FRUXIyMiurq739/cICAi4uLg0NDTc3Nx+fn4UFBQcHByZmZnq6urj4+MqKipsbGxQUFDx8fE9PT1LS0svLy94eHhbW1uGhoYlJSVnZ2dyPKUzAAAGjElEQVRoge2b6ZajKhCA3bfEuG9JjO//liMFKBSabiFjn7m368ecaQN+UBsFJJa1J+7d1pZnuPva70iY6KNniUzQRuRZYm20S18wBDoy1HNX3xBta3aP5q4XQ/QPsMHWWf4TbOrhbvsDbKpw3wrOZ3P0D7ApmnQ8nb3M+nw2zWY0GZ/Mph7O1oFz2YLCz2bL6FPZCH0mG6NPZIsefjJb8vBz2YrCz2MDOkOVxjlsOmsndUVJr2ew0916L/vrbGeX7f0c+6aJPshuxhsWx9VFH2Sn2hxztv4c/0vsLtITnpNN2M/dqPtCfGN2WeuyR/N5N7ps15xthb6W8Ej9V/38l/3L/j+ww+CqI/dHbMyOe928VhizO+2TVMeYPfdNdMTuO3P2rHYtWcf+b/r5L/uXfRq7Sr+Q6q+x5ydfZBGePbekq4r5jV75nRsTNad+o0buN99cusUzuGakQVL3w+Sl3dF5D1+znxvgaMqVdtfGfzd/lZ2qO2K8QS7xW9zH3jCzUWn8hn1cQkFVSdA2j9s0ZOujZs83zdnVsoFrCvFNqbfscG7bhjdmFxwcctOGy6FF5zN8thl0huySTjofV72SA9L1JKO8Ue3fNpzOjO3SgLyJFiXXW43wd0X9cFCtbsSmZ8C11D+CZ9LhbAgjzJRjHRP2BTCj9CymBg7klqM6oE125xV7IjekaORFI3M9dDJI26JJHjvzENVGL07xOsRbvlBKoefkss2PnXkIs6leeDBEpqXpiD5xScq9S4Guzns3Pc4iTKbfQrtC283PxAA4dubRyf3UZZocuxN9kJhu8Yc+9gNNP4ejbwc/9eaHPfknInDliwcFMrkmm0xQWUlLMmWfBHhIBqAewA+yOvTYkeq0Fo2vFibvgzsoJ/AQBas6tNgdudJQCqeUepgHjgDGVZYvovWXGZtM+64sDk/qx5QNfynn//FdnLgWmyhU+e6Oz4KQsUELypsj0eI6bMhoytOE2YGxmfWRwMkCj3yV7b+yHbEftMW0ZW1iSqhfOTvezACFkPLUM4/rm7wGpopzOcOBdMvHEf8PGUSNvYK4+jXeYb8984BpEMP2eD43HvAd+Z8Db79v5Z9pVbqq80u+J9m0dMGe5tL4ssqRVuk1qaO590nirQbT8LXXRpcWzOhOgo4aF+bYoJZE6ZMuO94wI5QGHl59r0Wy8fZZMexY6Dg7VWMnJlT+VT8SReK+CpVPRBlJpckmc0QJa73YnO0MMVY6a7gg3xgX4nF2obxuKZT6iOW1Oca6S8CeovLJ4zGowXZsnDLYtKdweTf93H1QO8h5iMS/Z8CWq126LXqxhyvbutQbSg+X0Rxnj7ZSi7ESL3AldviyN6YNqcD5HNuqWGBP1bqOsVq7wcnFhL3dI6SelTgx1Ewd2yO06nd0fQOdq75GxaPZNIBkRheF+1a7aPEAvRhD74xBr7CKiFJA9sNlnbf4ql5ukTcdc6Z7ggdU4n5qggGlAS4qTXILyalyeQxu/oAc7fJ01sJLSzh3kEc6jy/TzakWMaT0wKM4D1QMKwo1dOwkanyTpSiIddm10oVd7/SQKsuxpaWDz6qQSWpL1MbWVQ22Y+OyP+Vr2HMNfHexvWzuYu2twSZJEdVM/LBpti1Vp+DzaBlr19FosKFWRJHTrv7tSWPBuzai8mGvVvyGPGwlScMyWrNazaOJvIbTLVThjEJfHTYUhugZVE3+uM7XHqFURBth2KryDK+1JxoUb6O1b2ClXPmz1xEtPFCrQvR7LTaZZI6U2bEsciGRVfvUMle0Ey0zEafFjsmihat+0Lq77EtA43gVu9li7ai39/ftjW4NdQO6fsMM8fD4DsKIDdbFNxdw2/FgtSBpcMW9MtkDCLsIDwscemBHgr0xfEQ/x9UNUUwteIBvGwj2dWLOHmaT2+o2ucAx12lf8+M3WWxnz28r8FYVVCEvp5X297aIIEd+c64IYTCg8Vi+pyeQOVH1tO6OkD1A4S/93zghqUC7KI74yQFaQmBZy7+4qzsEh7XjKRXg7Hu+mfSwgkzbv79HPSglzDKX9E6XT/FR7IGChv1LOi2JaXHyFLMTmaNYJrGbu+Zjtl6EOZfwG0Gi9ZUTtpuu9xlJ+Ta74EFVRhztcrcPPqzvRSKeTfImCivqy10VRg2/GK51f0b3DYmL9Uwuv/dBEPT39UL66n0wtDaki4RiUZLh8nfJIGkR4B+VJq332a94v5HYvThNnyd28goaJ3LfRtUf/SVZ4ZwZddIAAAAASUVORK5CYII=;" vertex="1" parent="1">
          <mxGeometry x="1040" y="228.67000000000002" width="46.83" height="46.83" as="geometry" />
        </mxCell>
        <mxCell id="xcQrcyNLMx3Nr2cv-rWF-13" value="Peer 1" style="text;html=1;align=center;verticalAlign=middle;resizable=0;points=[];autosize=1;strokeColor=none;fillColor=none;" vertex="1" parent="1">
          <mxGeometry x="992" y="184" width="60" height="30" as="geometry" />
        </mxCell>
        <mxCell id="xcQrcyNLMx3Nr2cv-rWF-18" value="" style="rounded=0;whiteSpace=wrap;html=1;" vertex="1" parent="1">
          <mxGeometry x="960" y="370" width="140" height="120" as="geometry" />
        </mxCell>
        <mxCell id="xcQrcyNLMx3Nr2cv-rWF-19" value="" style="sketch=0;outlineConnect=0;fontColor=#232F3E;gradientColor=none;fillColor=#232F3D;strokeColor=none;dashed=0;verticalLabelPosition=bottom;verticalAlign=top;align=center;html=1;fontSize=12;fontStyle=0;aspect=fixed;pointerEvents=1;shape=mxgraph.aws4.traditional_server;" vertex="1" parent="1">
          <mxGeometry x="976.83" y="408" width="33.17" height="57.5" as="geometry" />
        </mxCell>
        <mxCell id="xcQrcyNLMx3Nr2cv-rWF-20" value="" style="shape=image;verticalLabelPosition=bottom;labelBackgroundColor=default;verticalAlign=top;aspect=fixed;imageAspect=0;image=data:image/png,iVBORw0KGgoAAAANSUhEUgAAAHsAAAB7CAMAAABjGQ9NAAAAYFBMVEX///8AAACOjo7R0dGlpaW+vr5FRUXIyMiurq739/cICAi4uLg0NDTc3Nx+fn4UFBQcHByZmZnq6urj4+MqKipsbGxQUFDx8fE9PT1LS0svLy94eHhbW1uGhoYlJSVnZ2dyPKUzAAAGjElEQVRoge2b6ZajKhCA3bfEuG9JjO//liMFKBSabiFjn7m368ecaQN+UBsFJJa1J+7d1pZnuPva70iY6KNniUzQRuRZYm20S18wBDoy1HNX3xBta3aP5q4XQ/QPsMHWWf4TbOrhbvsDbKpw3wrOZ3P0D7ApmnQ8nb3M+nw2zWY0GZ/Mph7O1oFz2YLCz2bL6FPZCH0mG6NPZIsefjJb8vBz2YrCz2MDOkOVxjlsOmsndUVJr2ew0916L/vrbGeX7f0c+6aJPshuxhsWx9VFH2Sn2hxztv4c/0vsLtITnpNN2M/dqPtCfGN2WeuyR/N5N7ps15xthb6W8Ej9V/38l/3L/j+ww+CqI/dHbMyOe928VhizO+2TVMeYPfdNdMTuO3P2rHYtWcf+b/r5L/uXfRq7Sr+Q6q+x5ydfZBGePbekq4r5jV75nRsTNad+o0buN99cusUzuGakQVL3w+Sl3dF5D1+znxvgaMqVdtfGfzd/lZ2qO2K8QS7xW9zH3jCzUWn8hn1cQkFVSdA2j9s0ZOujZs83zdnVsoFrCvFNqbfscG7bhjdmFxwcctOGy6FF5zN8thl0huySTjofV72SA9L1JKO8Ue3fNpzOjO3SgLyJFiXXW43wd0X9cFCtbsSmZ8C11D+CZ9LhbAgjzJRjHRP2BTCj9CymBg7klqM6oE125xV7IjekaORFI3M9dDJI26JJHjvzENVGL07xOsRbvlBKoefkss2PnXkIs6leeDBEpqXpiD5xScq9S4Guzns3Pc4iTKbfQrtC283PxAA4dubRyf3UZZocuxN9kJhu8Yc+9gNNP4ejbwc/9eaHPfknInDliwcFMrkmm0xQWUlLMmWfBHhIBqAewA+yOvTYkeq0Fo2vFibvgzsoJ/AQBas6tNgdudJQCqeUepgHjgDGVZYvovWXGZtM+64sDk/qx5QNfynn//FdnLgWmyhU+e6Oz4KQsUELypsj0eI6bMhoytOE2YGxmfWRwMkCj3yV7b+yHbEftMW0ZW1iSqhfOTvezACFkPLUM4/rm7wGpopzOcOBdMvHEf8PGUSNvYK4+jXeYb8984BpEMP2eD43HvAd+Z8Db79v5Z9pVbqq80u+J9m0dMGe5tL4ssqRVuk1qaO590nirQbT8LXXRpcWzOhOgo4aF+bYoJZE6ZMuO94wI5QGHl59r0Wy8fZZMexY6Dg7VWMnJlT+VT8SReK+CpVPRBlJpckmc0QJa73YnO0MMVY6a7gg3xgX4nF2obxuKZT6iOW1Oca6S8CeovLJ4zGowXZsnDLYtKdweTf93H1QO8h5iMS/Z8CWq126LXqxhyvbutQbSg+X0Rxnj7ZSi7ESL3AldviyN6YNqcD5HNuqWGBP1bqOsVq7wcnFhL3dI6SelTgx1Ewd2yO06nd0fQOdq75GxaPZNIBkRheF+1a7aPEAvRhD74xBr7CKiFJA9sNlnbf4ql5ukTcdc6Z7ggdU4n5qggGlAS4qTXILyalyeQxu/oAc7fJ01sJLSzh3kEc6jy/TzakWMaT0wKM4D1QMKwo1dOwkanyTpSiIddm10oVd7/SQKsuxpaWDz6qQSWpL1MbWVQ22Y+OyP+Vr2HMNfHexvWzuYu2twSZJEdVM/LBpti1Vp+DzaBlr19FosKFWRJHTrv7tSWPBuzai8mGvVvyGPGwlScMyWrNazaOJvIbTLVThjEJfHTYUhugZVE3+uM7XHqFURBth2KryDK+1JxoUb6O1b2ClXPmz1xEtPFCrQvR7LTaZZI6U2bEsciGRVfvUMle0Ey0zEafFjsmihat+0Lq77EtA43gVu9li7ai39/ftjW4NdQO6fsMM8fD4DsKIDdbFNxdw2/FgtSBpcMW9MtkDCLsIDwscemBHgr0xfEQ/x9UNUUwteIBvGwj2dWLOHmaT2+o2ucAx12lf8+M3WWxnz28r8FYVVCEvp5X297aIIEd+c64IYTCg8Vi+pyeQOVH1tO6OkD1A4S/93zghqUC7KI74yQFaQmBZy7+4qzsEh7XjKRXg7Hu+mfSwgkzbv79HPSglzDKX9E6XT/FR7IGChv1LOi2JaXHyFLMTmaNYJrGbu+Zjtl6EOZfwG0Gi9ZUTtpuu9xlJ+Ta74EFVRhztcrcPPqzvRSKeTfImCivqy10VRg2/GK51f0b3DYmL9Uwuv/dBEPT39UL66n0wtDaki4RiUZLh8nfJIGkR4B+VJq332a94v5HYvThNnyd28goaJ3LfRtUf/SVZ4ZwZddIAAAAASUVORK5CYII=;" vertex="1" parent="1">
          <mxGeometry x="1040" y="418.6700000000001" width="46.83" height="46.83" as="geometry" />
        </mxCell>
        <mxCell id="xcQrcyNLMx3Nr2cv-rWF-21" value="Peer 2" style="text;html=1;align=center;verticalAlign=middle;resizable=0;points=[];autosize=1;strokeColor=none;fillColor=none;" vertex="1" parent="1">
          <mxGeometry x="992" y="374" width="60" height="30" as="geometry" />
        </mxCell>
        <mxCell id="xcQrcyNLMx3Nr2cv-rWF-22" value="" style="endArrow=classic;startArrow=classic;html=1;rounded=0;entryX=0.571;entryY=0.422;entryDx=0;entryDy=0;entryPerimeter=0;exitX=0.633;exitY=-0.067;exitDx=0;exitDy=0;exitPerimeter=0;" edge="1" parent="1" source="xcQrcyNLMx3Nr2cv-rWF-21" target="xcQrcyNLMx3Nr2cv-rWF-1">
          <mxGeometry width="50" height="50" relative="1" as="geometry">
            <mxPoint x="960" y="370" as="sourcePoint" />
            <mxPoint x="1010" y="320" as="targetPoint" />
          </mxGeometry>
        </mxCell>
        <mxCell id="xcQrcyNLMx3Nr2cv-rWF-23" value="" style="rounded=0;whiteSpace=wrap;html=1;" vertex="1" parent="1">
          <mxGeometry x="460" y="130" width="270" height="400" as="geometry" />
        </mxCell>
        <mxCell id="xcQrcyNLMx3Nr2cv-rWF-24" value="" style="rounded=0;whiteSpace=wrap;html=1;" vertex="1" parent="1">
          <mxGeometry x="506" y="154" width="140" height="150" as="geometry" />
        </mxCell>
        <mxCell id="xcQrcyNLMx3Nr2cv-rWF-25" value="" style="sketch=0;outlineConnect=0;fontColor=#232F3E;gradientColor=none;fillColor=#232F3D;strokeColor=none;dashed=0;verticalLabelPosition=bottom;verticalAlign=top;align=center;html=1;fontSize=12;fontStyle=0;aspect=fixed;pointerEvents=1;shape=mxgraph.aws4.servers;" vertex="1" parent="1">
          <mxGeometry x="530" y="175" width="78" height="78" as="geometry" />
        </mxCell>
        <mxCell id="xcQrcyNLMx3Nr2cv-rWF-26" value="Backend for &lt;br&gt;IOT" style="text;html=1;align=center;verticalAlign=middle;resizable=0;points=[];autosize=1;strokeColor=none;fillColor=none;" vertex="1" parent="1">
          <mxGeometry x="525" y="263" width="90" height="40" as="geometry" />
        </mxCell>
        <mxCell id="xcQrcyNLMx3Nr2cv-rWF-27" value="" style="rounded=0;whiteSpace=wrap;html=1;" vertex="1" parent="1">
          <mxGeometry x="520" y="340" width="140" height="150" as="geometry" />
        </mxCell>
        <mxCell id="xcQrcyNLMx3Nr2cv-rWF-28" value="" style="sketch=0;outlineConnect=0;fontColor=#232F3E;gradientColor=none;fillColor=#232F3D;strokeColor=none;dashed=0;verticalLabelPosition=bottom;verticalAlign=top;align=center;html=1;fontSize=12;fontStyle=0;aspect=fixed;pointerEvents=1;shape=mxgraph.aws4.servers;" vertex="1" parent="1">
          <mxGeometry x="540" y="355" width="78" height="78" as="geometry" />
        </mxCell>
        <mxCell id="xcQrcyNLMx3Nr2cv-rWF-29" value="Backend for &lt;br&gt;Blockchain" style="text;html=1;align=center;verticalAlign=middle;resizable=0;points=[];autosize=1;strokeColor=none;fillColor=none;" vertex="1" parent="1">
          <mxGeometry x="535" y="443" width="90" height="40" as="geometry" />
        </mxCell>
        <mxCell id="xcQrcyNLMx3Nr2cv-rWF-30" value="" style="endArrow=classic;startArrow=classic;html=1;rounded=0;entryX=-0.014;entryY=0.696;entryDx=0;entryDy=0;entryPerimeter=0;" edge="1" parent="1" target="xcQrcyNLMx3Nr2cv-rWF-1">
          <mxGeometry width="50" height="50" relative="1" as="geometry">
            <mxPoint x="660" y="410" as="sourcePoint" />
            <mxPoint x="840" y="410" as="targetPoint" />
          </mxGeometry>
        </mxCell>
        <mxCell id="xcQrcyNLMx3Nr2cv-rWF-31" value="" style="endArrow=classic;startArrow=classic;html=1;rounded=0;" edge="1" parent="1">
          <mxGeometry width="50" height="50" relative="1" as="geometry">
            <mxPoint x="562" y="338" as="sourcePoint" />
            <mxPoint x="562" y="308" as="targetPoint" />
          </mxGeometry>
        </mxCell>
        <mxCell id="xcQrcyNLMx3Nr2cv-rWF-37" value="" style="endArrow=classic;html=1;rounded=0;entryX=-0.007;entryY=0.427;entryDx=0;entryDy=0;entryPerimeter=0;" edge="1" parent="1" target="xcQrcyNLMx3Nr2cv-rWF-24">
          <mxGeometry width="50" height="50" relative="1" as="geometry">
            <mxPoint x="260" y="300" as="sourcePoint" />
            <mxPoint x="310" y="250" as="targetPoint" />
            <Array as="points">
              <mxPoint x="260" y="220" />
            </Array>
          </mxGeometry>
        </mxCell>
        <mxCell id="xcQrcyNLMx3Nr2cv-rWF-38" value="IOT sensor&lt;br&gt;Data" style="text;html=1;align=center;verticalAlign=middle;resizable=0;points=[];autosize=1;strokeColor=none;fillColor=none;" vertex="1" parent="1">
          <mxGeometry x="314" y="176" width="80" height="40" as="geometry" />
        </mxCell>
        <mxCell id="xcQrcyNLMx3Nr2cv-rWF-39" value="" style="rounded=0;whiteSpace=wrap;html=1;fillColor=none;strokeColor=default;" vertex="1" parent="1">
          <mxGeometry x="200" y="320" width="120" height="60" as="geometry" />
        </mxCell>
        <mxCell id="xcQrcyNLMx3Nr2cv-rWF-40" value="" style="shape=image;verticalLabelPosition=bottom;labelBackgroundColor=default;verticalAlign=top;aspect=fixed;imageAspect=0;image=data:image/png,iVBORw0KGgoAAAANSUhEUgAAANkAAADoCAMAAABVRrFMAAAAhFBMVEX///8AAAABAQH5+fmFhYW9vb0XFxdOTk48PDyfn58jIyNBQUGIiIj8/PxiYmJGRkZqamrCwsLz8/Pl5eXe3t7JycmxsbF8fHxlZWWPj49dXV3t7e3g4OC3t7dYWFgQEBBxcXEzMzMsLCyYmJgeHh6rq6vW1tY2NjZ4eHijo6MUFBTPz8/zxdkEAAAUXUlEQVR4nO1dCXuqPBMlgGJdcUVcEFFbW/////vIPlnYrPdV+nme596qLOZ4kslkJgmO88Ybb7zxxhtvvPFGO7GKVqNnl+EfYOEjDH/37II8GPsBpuXi/warZxfmcaByua5L/mHhFs8u0kPA5CKUxIvBvu0tTsqF0GbqLDfiXbuFI3JRIofTlny0PR1aL9xOlUti2mrhRqB1HeKtdrS9wi2K5JJopXBQrpMul0TrhBtWyiWhmMr/pHS/wJCW1UXdErkktqczPf31qfVIQV0UzGpeMEvYFb1/Wq7fY0DLmYuwWdY4fTlG/II2MONt56eiQm5PXd7O2sEM9aR/WCIclouf1kPtYBY7K+lW2YUDcuFhTdwSZsP87yIqEQ7KFeFuetgiZrmDBYSDXYAqF+2h28XMUYUbU+EMuQhax0wT7mPH5EJALoIWMnOke6yMqSPVCW4nMyic2rok2srMYS2O8oosY5YWM8PCZfmh/sqzHWw1M8cJ80Nr+6E/wGxsP/Rm9kxgK/hnmYV7+6ESZvsMtYFZVpCSKGM2aAWz8Fu+9UCfrDEbAfu/agez9UW8ixGSAqrMVigfx4k3vacx81bjYa2cHrQgI+LXi1CPwmxG/H/+DruWtZjt/I29r78TdDSCJjXincDqz3okF2hntiXHvtiwrZ5tHO0nyOJO3w1vBeIalclYyeyTJjllGFGtjT695Sd5U4fZDowZeg8Qjg8eXX7TCuEEsz294EMe0izIBz2BdBGVzJhcMi6Gos/7SWG5ZIheDvFLhePMYnoZjH/rVn9KT4mrme1ASP38AOGAXHisvz39oGrhKLPRmpz5ozQIoz9bdMntxuXMgFzoJ97SeINrHcDWApTrzOMzSmrILhyJyhHb4aKJGgE3e+rZhNoRrzgqZ8svbk/9u4XT5JLYxt1y4TCzcZ8UONUO2XyQlJx53tiZ6XJJ3CecB6IyZzMOWi4cj34rtqOYGbcjtuh3YTqYoLlwhXKBm8bFLY5lLFTbUcKM2hEzYzHaBzLoZaSDKZbr+sJZW5cN06RAOMoM9S1fVOAR7zJ6yQB+BuRKSvKLOP1WS7hY3m9dlSNSWpzgtu3T6y+WK4p8/Qv9zrP4IeeydRXJJQGFi4tOWvGKkdXKVzpTlvySPt+nyyuja7qZVmbz+MC/FfG+t8dvW5kOJtieMn6HoildPidWJ6eHMYt4GWhFYH4HUzLoqE3QwqwTCHWEP+J4/KbXunnTJadWlBH2Rb6y/1FDNG4kBbOYzoaTTdCN5yXM5sODbEzSH+HMauXwc2w/+iJvWsZM/OIVDY23XWbiMbM1IZb7HaSGmcKpzIBch/wHYP7ImjOzZXFsuK2h6iXMUCaNbYlwZLoDVchNEGG2pWMW5nd0pHCHeMeZiREZ507kotxzf4S02C1hhhKX3b9MOCIXu83kiMqZTZTUkFU4mgBDGR7cTFZ5h5SfSm0H9DtM4cLugDAbaXJxpHxcgylNHex/nAfkensHBOTCnn9QySyvDhfphBjCkdaFyYThkXSPnfyNe6FfcYJnjqBww7kThunXWJNLuTXzR1b5/RA+sojC9aQgbwrlGlxwY6jDzHGKhAOtC61vtAURZuaYhQAKtxl8RYPexioX/9VYC2PM8t/4lorvg8ItgVxX5hTUZKZ6j0y4pSwWmAXW4Y7fj83BgcJd1xPxWu8SKHbEjuAzhJow/UaFM+VqxszRhLsBuSbQkemw3mdS1PsI4YLkiETdtIOMaxRm+DeeAOG01iXRhJkqnLyfqk2HHk8LborBhGP/EqtcHClCGjOH+5FIFAO/6F1UP7EZsxyf3Pe3yCWYabbDAipcmVwc1I50tE+9/QQWwxIGacyMmUp6Q9tAGlsQoyAWYOHK5RI3RCYzh7U4Uo7BxeLW38EM35R0x/ZhAmFWb+JlvYH9qIAZFo504vah2H3MnO/8UNd+qIOER/wYeIXMHCcfJKFv+6E7mX00Zjb/7Ow7t/kds2irmBlhCIr/hJm3D7vUjKFDcqk11oNXvyyz2VAYZ2qm02brl16W2YfscgQ7v0mlfFFmswD07LJ/zxoEc1+T2e5APYX+cLr1PG+7jHuowFsuxEsy21EWA0jjM2lI7RWZzahiekhu2ozaKzILMIODmdjafjWh9oLMvnGRDjaP1xs0oFbODD3cB8m/zn5IMJuRqsgVu8VJL/CnzNx7vfrUypjhMeLNfuhOZtNsnaX2Q4JZjAvPftDlkZn8LgvbNlCtjNkkHD+Y2XLj9wqmU3FmpEAsDB7zsRRCfOJffWplzOJ19FUQCL2bWdQruIwz62CJaIFOfPhN/mxYgetSK2P2NfB7/zmzNP97Jp/MM9Jbr4fpmTS9htTKmG2u0eOZDSpqIzbIEfmE+B0pDviMTgq1emaktDZOro9mtg6vBcymlNlWlOfT7cqAz6U5NY/GiK24RtHgTgtynlrd8m+UHe3MdilltsDNivRlJL8oQnTNqRFmBSOf/s/B3p+Npv1yZjiZYsZucX82jiLL/ToBz8UsRYeNJwqAbFJjaiwXY4214p7a4oPMcQK2JBfzzU1aYgiHe+qDfv5uyGPbZ1Epc0xEgyumVprCOvP4uJk3tXpXMmle4HixWXssP6wKh5mp3pWSUcmrvtQMx7mU2es2amVRx5ucuqALZzKbx3Le1Kb4nlIFLZSr+407mK8kdQu2s9x7VAIjFmrl88emMIsDhdOYqSeWx2ihFEA4hRk9x1XPmQuLtsSvVHOjUiOef1HFYZjHZ5twCjMolz0Dot8UCsdaHGC2sxzGOAs++Os1C7aC1OiszaooONVDa3GSmfVwJUxROLMCSTHW+SkZeUUiuaooiz50tCjPqlSALpwHmClyNdsaQFWGxYiV2QC6/dwjYfOu5EKgWsyjWIwa9bN6VbKZytAY8V1ygZsC4fq4g+8mRXIRkOFZQF+HCrXRhl0mklEd9kGdiSdzMFkowcwCmRis1bpsAMK54H+zuyOIcMn3nJpsa6OAxrOu5A9xwLwu07BGDke1gPz/O+UCN+XCicyVTS4KxTAA1TbkZTijFvKLHE758K0WNdCuRDlou/sVRNfl6p2cDjKozpjHKKidpHy+CCeseHK7LjUp3O/lkvCYd3gulIuBdFRHldpC1kGqKuF4wx9mjahRU0k9ygcmtU55SX4qW+scqdRw8ZXODVftiJ6Zn7hoEtEiGOG7VfcWTVASlYO4IVM1V3iRWzy5A13JS8x6PmoQ0aIoiTfeiZrMiGelUsvf9mnl2YX96BpeifVcUGPTJFhH8DxmBjX8jlafxdGfRJsoIBaEhBi2zeKQGE9kplHbiI5ge05zZsl1QgTE7baPXzSk9kxmKrWx8EviNMHMUuo0B2Lc3YzaU5kp1IQt80I/GU6iICJZazLkSejpjag9lxmgBgJaQbi+DlLmBJ+Il9QsWEfwZGaSGtGGJHJjGuanLrA3QdDzb0Dt2cwEtTlmQ+rfFb+KmF0Zkj68WdiH4vHMzNhGOSi13icuP3HxIhClxXPGctcKGRWy0hn08MC9cL1Bc5C5gDib2WBjWkqtj6eXkpjuN+vAHD7k3q1M1bJy/23nH2ga/EGLWMUSIDoyr3tTSg1fRdLWxDEmLuMHDxVYwj4FAXZyAl8CRIagv1/EKuaDinFRbeGWPIUWkrc96hlvx9KTVKiVh30W/kErx++EU5avyhFtTeEYNdY+p6TkIY0ZBLTaKdTItMar7UZULjC2/6VwVC56vwzHfbsyhOzWEu7GTqcRhIgXDaE1b08KNTKH0pyMvPNlrGmMbWNyFL+xOUO2GtpWVdgAnEWUrK5wWzLfmQUImOevhuPoPP+Q/xCuvhrJAwvs8MCXxq7sm2bVAZxt3SfT5EW8EQbEagj3TebyXwA11FeuoqpRPkfkqqF5KBeNsfP+jK+FbCacZWcx2FM3E44aBrkyxogeE2pnUj1jxR3Q5XIgM6dot7NimHLpzByxgqSWcGT6Cw/7rPUQq8P8LiLIFFjHghi74oNA4apMpU0uC7NGwpE100dBzVBt1EUspbfFX4sHpla5TGZObeFGiU0uKzO1xZV6fGrYx0It5GM4nqBeIptcVmaqcEmRD/PBO6DQKClm9mOU+fTFrjiXMNPCPiY1HIUcCGYdktUhJf06GR231SNehgd2RZGzzNd5/lyMXuWCOzWzzBvu75TWx6VGTWtruEIlgtlSrvPcmLMIcFdmrPudXbqs5NXrPNFau6mXiZA9h6gGlcwMaopqM4S6feK/kzHPAq7z1BsF9qYz7bv4suMqZqLOZuqSutFNrRlT4JBUMmPUvqyqpXiRHjGwLKDlgfvmhkwdkM5vSlvafmTizHJmqAeWe+nCyfuBPQMCkoKp6tZ0aviaIZk6iD3JjPr4EQ1okUoZgRRX4SLWWygL6w9Q1Rye2apXJBwrpWppp3WYadRol30YR3QlbEgnReJhZSpM5MIHwlmML5cLn9BbzerNTvq8yrIPVeEUt4Z0ZDXXxZhtjdye/KE2ga9hEvOuPLCJhi7cDfS8V/LD1Jx3BbdmAMLZtuWou+JHpXaV1od7yPnYE7kjdUYZXAsphVPk4oa8/owyLhy+PMTCmXI1YqZVyH0fUfRYpfjAR7GNVOfKiSV1QjjSulwoV0NmfD8o3uKKNuOov0pLpeYs400wPvGikWAQGZ4ZswChcGutdUk0nAUIW5wpV0NmWoVUsENiuGOZ3wiFU1vX3cwcaSqL3M4mK+sotcyMdnySAzQebp+5KQNNSuuSuGfmJhaO3NA6xmu0ZnAJ4wcSZNI86tLSFs1JJcKRcuhyEdw3J9W74uLbRwnNVkMyagHooEadI/2QSVky23ZxwFEg+5c9fZ3njfclw+l8NpvtOhGZD5EPxHgdffV1noWYfwmTxIHfJqLhvOC6mLrg6xSgSQBDkxYzc+YR14pqd4ihpWszs7wv2a/PrCpm6VRb2dtqZhjbxXK6XJiDifYzK8Jzman7g9RlVvMsjRm86m5mqB6zRQaSJnWZ4SBirUC1h1ufYDa6oky6HHcyizf9TWA/pDIjuybxBlKPGXucZ52HneXMAhG28qKvBKzpu5PZJUqGtZiR3XICRq0GM5YAG2zI7if6YME4G52HG8Z/m0ahn8gVG3cyG4aJX4sZjj6iDQsAVTJjwyt8xYCHY8qE89DhGNATpn7P7/uBDFj8a2Y47IeS6EyG+eXMYIg+AXOuS4TLa2MaEmbLoz/xswjE5X7BLKnFDG9JFqU9lFYwU7Z0wgW0byylM+v7ZGdLP50MJ1EGe7x7maWBXzDZwujPZr3s60y2gipkpmRURIgebgZmF85DXT9dOF589SdxT41Z3Wv1u91jwXIgS09NA2vdXUG8cafLJVEhnIdnGC93R5T1u91QPXZ/f3YtuMzmg7Btoq8WZqpcpgMFhQv0Po70Z8xn1qvQL3rqehaEgm2xacT1jdZlw7RQOE/e1nhuxC+8K9c+c93uN37y7A5gZm9dNijCgRYncjE/ZrijkBneKawyF2PbJrfAI77xIaRIkCzkuKvGVqBw12ah24jf1JIwKWDGVikUMlvx6mGuELExY8tXSSFEsTbsE2uuwwIcyKZXiP5mIe5qLuixMZvLjZ8LH1d+kj+4liA2mc3haiDpwfLnefa+azL7FlewT6YwfeZqSxxNZnDP55I1CnDhnLL6WGOmrOCi57O7yud5Vm/WrOYre/ybyO3ASiy4cE5jBuSqXrG1G7pAOCuz+VBmtpIO9kew4U8FM/HjFOf0MGB+UTCjm7ejT7qHrCGcwgwu3qq1BMi2Q6tkBuViR+G2tjjzGMIMQ5FwcENQH0+cwMzYhvs9OkEc7KjKhZPM4O7cDdZDGsJxZppc/LeQj0Cgz0SA6TebcFAuPPuGPROBb0osyjmFwu0AM9i6Gq7YUlvcls6VM+XiEI+tEE/ogLvZa8ItjQ1BKTPwYAsBRbiOg/fn+N42XW2sAwqH73gA6y2NAAzzRy4BEnNmFeFEJ8D3b+VyOZzZhO38a1hu0OJ+8Eym7G65JEZyMqgr/rNtt+s43I4gBGcDG5v/KnJJn2ooDb0tzQKEc7njlbfre5evUogHmnBbbsrFwOyIq85zhnvIZn5mygWYCdthARdOJPIesB6yaDNrE2vmFmkzuKFwLmxdEkPmT41LVFC2237Uc+NpiyuWi4PZEWNuumhx5DaWxzIM6bGqNQZUuEfIJTHap1XLVzFwfARtbM+s+4zYD26dhbjHk1zMMYuJeZw+Sq6GwHbky/YQCzJ70uXT2XXgZ9a5v3rQ0r/HRHmym4KSp/Hh2jqwH3oZ5EVM/+xzBu966mUbmP3dJ5W+mUG8mT0Tb2Yq3syeiTczFW9mz8SbmYo3s2fizUxFW5gVbNAGnlmnAm+t9vrM6HYYOFBtIERnGzP2GLGXZzYUMUFDuHUYZTqzeSwyIEWZ2JcBeI6rFp8Ms2tPnW4Cnvr2yP1M/hlATFkRbp2OB4DZPJan2SrvS2JuFW6dhEdRGxW5asRoXwcg1cZLLm0jZN4auSQM4Xh/1l65JJQWt8WbuofbNrYuG6BwePqQ2365JDp63rT1ckkI4US+svVySTDh/pBcElS4P9C6bOj4f02uN95444033njjjf8joL8KxwVA7h8CZIbQX6ImmGEBZ4qczyxWTdhqIT/GmSG3M83fTDvny/dwH67Oq+z1qaFgEPSz4NhNkslhM/76yv+KYgtm3/Pbt3P5XOT/Ofubk/FVSa8MtNlMrtf02luPN24YbSZhmE4MZueNd3EOa+/bCbbpbdQKZrQ2JrweHo7W2hh6nZVznS0vTrK9toFZkbXnxwWz5SVndjvdcmaz66eXkEcRvTByrdbROAlTNNmkm/E1SY6bIN1cE6M2pt70Y371pqddcFt3VrfX1+xjla6i1aW3Ol06fhx1vk7xxY99nZkmbvTNdph9YWi1MC2ojdpF0Ufaig5NwiiunZkLybcUBcz+AP4us/8BpGpeyHKHOm8AAAAASUVORK5CYII=;" vertex="1" parent="1">
          <mxGeometry x="885.17" y="148.67" width="57.37" height="61.33" as="geometry" />
        </mxCell>
      </root>
    </mxGraphModel>
  </diagram>
</mxfile>
